<svg xmlns="http://www.w3.org/2000/svg" width="17.854" height="17.854" viewBox="0 0 17.854 17.854"><path d="M5.356,14.283a1.785,1.785,0,1,0,1.785,1.785A1.791,1.791,0,0,0,5.356,14.283ZM0,0V1.785H1.785L5,8.57l-1.25,2.142a3.172,3.172,0,0,0-.179.893A1.791,1.791,0,0,0,5.356,13.39H16.069V11.605H5.713a.192.192,0,0,1-.179-.179v-.089l.8-1.518h6.606a1.628,1.628,0,0,0,1.518-.893l3.214-5.8a.491.491,0,0,0,.179-.446.843.843,0,0,0-.893-.893H3.749L2.946,0ZM14.283,14.283a1.785,1.785,0,1,0,1.785,1.785A1.791,1.791,0,0,0,14.283,14.283Z" fill="#fff"/></svg>