<svg xmlns="http://www.w3.org/2000/svg" width="24" height="24" viewBox="0 0 24 24"><ellipse cx="12" cy="12" rx="12" ry="12" transform="translate(0)" fill="#4e598f"/><path d="M139.234,125.522l-5.7-5.7c-.094.029-.33-.081-.434-.06-2.446.408-4.81,0-7.174.652-1.141.326-1.223,1.712-1.63,2.609-.571,1.63-.489,3.424-1.223,4.973-.489,1.06-1.63,1.712-2.038,2.935-.136.51-.128,1.153-.282,1.641l5.721,5.718c.223.012.448.019.675.019A12.106,12.106,0,0,0,139.253,126.2Q139.253,125.858,139.234,125.522Z" transform="translate(-115.253 -114.304)" fill="#364270"/><g transform="translate(5.071 5.07)"><path d="M121.459,109.466H111.335a1.867,1.867,0,0,0-1.867,1.867v10.124a1.867,1.867,0,0,0,1.867,1.867h4.993l.009-4.952H115.05a.3.3,0,0,1-.3-.3l-.006-1.6a.3.3,0,0,1,.3-.3h1.284v-1.542a2.52,2.52,0,0,1,2.69-2.765h1.31a.3.3,0,0,1,.3.3v1.346a.3.3,0,0,1-.3.3h-.8c-.868,0-1.037.413-1.037,1.018v1.335H120.4a.3.3,0,0,1,.3.339l-.189,1.6a.3.3,0,0,1-.3.268H118.5l-.009,4.952h2.971a1.868,1.868,0,0,0,1.867-1.867V111.333a1.867,1.867,0,0,0-1.867-1.867Z" transform="translate(-109.468 -109.466)" fill="#fff"/><path d="M254.29,302.76l.009-4.952h-.021v4.952Z" transform="translate(-247.429 -288.901)" fill="#fff"/></g><path d="M259.42,109.466h-5.143v6.6h.013v-1.519a2.5,2.5,0,0,1,2.69-2.722h1.31a.3.3,0,0,1,.3.3v1.325a.3.3,0,0,1-.3.3h-.8c-.868,0-1.037.406-1.037,1v1.315h1.908a.3.3,0,0,1,.3.334l-.189,1.572a.3.3,0,0,1-.3.264h-1.71l-.009,4.877h2.971a1.853,1.853,0,0,0,1.867-1.839V111.3A1.853,1.853,0,0,0,259.42,109.466Z" transform="translate(-242.401 -104.289)" fill="#d1d1d1"/></svg>