<svg xmlns="http://www.w3.org/2000/svg" width="24" height="24" viewBox="0 0 24 24"><ellipse cx="12" cy="12" rx="12" ry="12" fill="#65a2d9"/><path d="M124.026,139.326a23.6,23.6,0,0,0-3.545,3.4c-2.524,3.044-5.609,7.363-9.807,6.719l7.5,7.49a12.106,12.106,0,0,0,11.477-11.982Z" transform="translate(-105.653 -132.95)" fill="#3a7ca5"/><path d="M122.9,135.455a5.337,5.337,0,0,1-.941.322,2.985,2.985,0,0,0,.774-1.252.155.155,0,0,0-.225-.182,5.382,5.382,0,0,1-1.439.6.358.358,0,0,1-.09.011.378.378,0,0,1-.252-.1,2.916,2.916,0,0,0-1.947-.746,3.1,3.1,0,0,0-.932.146,2.877,2.877,0,0,0-1.921,2.086,3.236,3.236,0,0,0-.07,1.1.11.11,0,0,1-.108.121h-.01a7.681,7.681,0,0,1-5.3-2.877.153.153,0,0,0-.252.02,3.027,3.027,0,0,0,.479,3.632,2.615,2.615,0,0,1-.671-.264.154.154,0,0,0-.229.135,3,3,0,0,0,1.718,2.756h-.063a2.6,2.6,0,0,1-.5-.048.155.155,0,0,0-.175.2,2.962,2.962,0,0,0,2.329,2.037,5.37,5.37,0,0,1-3.041.938h-.34a.226.226,0,0,0-.22.173.238.238,0,0,0,.112.262,7.98,7.98,0,0,0,4.058,1.111,8.077,8.077,0,0,0,3.468-.747,7.668,7.668,0,0,0,2.537-1.931,8.6,8.6,0,0,0,2.082-5.534v-.046a.512.512,0,0,1,.187-.4,5.875,5.875,0,0,0,1.17-1.3.155.155,0,0,0-.19-.23Z" transform="translate(-104.289 -127.878)" fill="#fff"/><path d="M262.16,135.455a5.479,5.479,0,0,1-.956.322,2.979,2.979,0,0,0,.786-1.252.156.156,0,0,0-.229-.182,5.512,5.512,0,0,1-1.461.6.369.369,0,0,1-.091.011.388.388,0,0,1-.256-.1,2.988,2.988,0,0,0-1.977-.746,3.194,3.194,0,0,0-.947.146,2.9,2.9,0,0,0-1.607,1.255v9.717a7.742,7.742,0,0,0,3.437-2.268,8.465,8.465,0,0,0,1.578-2.642,8.348,8.348,0,0,0,.536-2.892v-.046a.509.509,0,0,1,.19-.4,5.907,5.907,0,0,0,1.188-1.3A.156.156,0,0,0,262.16,135.455Z" transform="translate(-243.494 -127.875)" fill="#d1d1d1"/></svg>