<svg xmlns="http://www.w3.org/2000/svg" width="260" height="66.795"><path d="M28.364 64.009h-1.232l-3.374-6.615-.035.012v6.6h-1.241v-8.897h1.241l3.371 6.6.038-.01v-6.59h1.232zm9.218-2.239h-2.836l-.646 2.239h-1.26l2.738-8.894h1.2l2.713 8.894h-1.259l-.647-2.239zm-2.548-.988H37.3l-1.111-3.888h-.037zm14.037-4.728h-2.289v7.955h-1.24v-7.955h-2.27v-.938h5.8v.938zm8.552 5.716h-2.841l-.646 2.239h-1.254l2.738-8.894h1.2l2.713 8.894h-1.259zm-2.548-.988h2.267l-1.111-3.888h-.038zm10.128 2.289h3.469v.938h-4.71v-8.9h1.24zm10.28-1.4a2.273 2.273 0 01.381-1.3 5.27 5.27 0 011.134-1.149 5.982 5.982 0 01-.617-1.084 2.544 2.544 0 01-.2-.992 2.2 2.2 0 01.546-1.582 1.966 1.966 0 011.483-.567 1.818 1.818 0 011.374.546 1.852 1.852 0 01.526 1.334 1.918 1.918 0 01-.269 1.026 3.29 3.29 0 01-.763.836l-.636.525 1.791 2.4.035-.006a3.269 3.269 0 00.3-.8 4.045 4.045 0 00.108-.961h1.007a5.144 5.144 0 01-.2 1.465 3.622 3.622 0 01-.592 1.19l1.091 1.457h-1.449l-.469-.636a3.637 3.637 0 01-.965.567 2.969 2.969 0 01-1.07.194 2.537 2.537 0 01-1.857-.68 2.4 2.4 0 01-.69-1.789zm2.585 1.528a2.067 2.067 0 00.751-.144 2.416 2.416 0 00.7-.417l-1.956-2.644-.14.115a2.5 2.5 0 00-.546.822 2.108 2.108 0 00-.137.711 1.733 1.733 0 00.354 1.115 1.184 1.184 0 00.973.436zm-.715-6.077a1.69 1.69 0 00.138.648 4.445 4.445 0 00.406.74l.634-.5a1.358 1.358 0 00.419-.517 1.531 1.531 0 00.113-.6 1.045 1.045 0 00-.231-.677.765.765 0 00-.623-.286.71.71 0 00-.632.34 1.51 1.51 0 00-.225.845zM90.5 60.497v3.512h-1.241v-8.9h2.921a2.575 2.575 0 011.954.74 3.037 3.037 0 010 3.9 2.581 2.581 0 01-1.954.738H90.5zm0-.938h1.68a1.231 1.231 0 001.061-.494 2.061 2.061 0 00.361-1.245 2.122 2.122 0 00-.357-1.263 1.227 1.227 0 00-1.065-.5H90.5v3.5zm10.352.613v3.837h-1.241v-8.881h2.767a2.736 2.736 0 011.956.652 2.453 2.453 0 01.69 1.871 2.237 2.237 0 01-.321 1.211 2.166 2.166 0 01-.926.811 1.645 1.645 0 01.963.767 2.77 2.77 0 01.3 1.336v.778a3.364 3.364 0 00.081.76 1.131 1.131 0 00.283.553v.142h-1.276a1.025 1.025 0 01-.265-.609 6.023 6.023 0 01-.058-.861v-.753a1.865 1.865 0 00-.34-1.182 1.113 1.113 0 00-.93-.436zm0-.938h1.465a1.407 1.407 0 001.11-.406 1.691 1.691 0 00.357-1.151 1.82 1.82 0 00-.348-1.186 1.287 1.287 0 00-1.057-.421h-1.526v3.164zm13.34 2.539h-2.835l-.646 2.239h-1.26l2.738-8.894h1.2l2.713 8.894h-1.259zm-2.548-.988h2.266l-1.111-3.888h-.038zm12.955.984a1.5 1.5 0 00-.354-1.032 2.905 2.905 0 00-1.238-.707 5.048 5.048 0 01-1.949-1 2.11 2.11 0 01-.678-1.638 2.2 2.2 0 01.755-1.722 2.8 2.8 0 011.939-.673 2.64 2.64 0 011.987.778 2.517 2.517 0 01.732 1.878l-.012.035h-1.199a1.939 1.939 0 00-.4-1.265 1.574 1.574 0 00-2.194-.083 1.464 1.464 0 00-.375 1.034 1.272 1.272 0 00.4.955 3.663 3.663 0 001.332.7 4.316 4.316 0 011.849 1.034 2.331 2.331 0 01.636 1.693 2.17 2.17 0 01-.751 1.739 2.939 2.939 0 01-1.974.643 3.249 3.249 0 01-2.079-.7 2.316 2.316 0 01-.859-1.987l.012-.037h1.191a1.753 1.753 0 00.48 1.353 1.792 1.792 0 001.255.438 1.486 1.486 0 001.09-.388 1.4 1.4 0 00.394-1.042zm11.893 2.24h-1.233v-3.94h-3.409v3.94h-1.241v-8.9h1.241v4.015h3.409v-4.015h1.233zm11.049 0h-1.233l-3.374-6.615-.035.012v6.6h-1.241v-8.897h1.241l3.371 6.6.037-.01v-6.59h1.233zm9.218-2.239h-2.836l-.646 2.239h-1.26l2.738-8.894h1.2l2.713 8.894h-1.259zm-2.548-.988h2.266l-1.111-3.888h-.038zm11.466-.375a9.488 9.488 0 01.8-4.03 5.017 5.017 0 011.733-2.274h.035l.228.659a4.967 4.967 0 00-1.182 2.1 11.132 11.132 0 00-.5 3.535v.121a11.086 11.086 0 00.5 3.53 5.291 5.291 0 001.182 2.128l-.228.623h-.035a5.022 5.022 0 01-1.735-2.256 9.434 9.434 0 01-.794-4.038v-.1zm13.144 3.6h-1.232v-3.94h-3.407v3.942h-1.241v-8.9h1.241v4.015h3.409v-4.015h1.232zm10.83-3.221a3.483 3.483 0 01-.82 2.465 2.845 2.845 0 01-2.191.882 2.773 2.773 0 01-2.158-.882 3.544 3.544 0 01-.8-2.465v-2.441a3.55 3.55 0 01.8-2.466 2.755 2.755 0 012.154-.89 2.834 2.834 0 012.189.89 3.5 3.5 0 01.822 2.466zm-1.234-2.46a2.855 2.855 0 00-.463-1.761 1.568 1.568 0 00-1.314-.6 1.5 1.5 0 00-1.285.6 2.945 2.945 0 00-.446 1.761v2.462a2.943 2.943 0 00.451 1.776 1.5 1.5 0 001.28.6 1.562 1.562 0 001.316-.6 2.9 2.9 0 00.461-1.78zm7.336 1.841v3.842h-1.241v-8.881h2.767a2.735 2.735 0 011.956.652 2.452 2.452 0 01.69 1.871 2.237 2.237 0 01-.321 1.211 2.166 2.166 0 01-.926.811 1.647 1.647 0 01.963.767 2.768 2.768 0 01.3 1.336v.778a3.378 3.378 0 00.081.76 1.133 1.133 0 00.284.553v.142h-1.276a1.026 1.026 0 01-.265-.609 5.988 5.988 0 01-.058-.861v-.753a1.865 1.865 0 00-.34-1.182 1.114 1.114 0 00-.93-.436zm0-.938h1.465a1.407 1.407 0 001.11-.406 1.691 1.691 0 00.357-1.151 1.82 1.82 0 00-.348-1.186 1.287 1.287 0 00-1.057-.421h-1.526v3.164zm13.34 2.539h-2.836l-.646 2.239h-1.26l2.738-8.894h1.2l2.713 8.894h-1.259zm-2.548-.988h2.266l-1.111-3.888h-.038zm10.128-.613v3.842h-1.241v-8.881h2.767a2.735 2.735 0 011.956.652 2.452 2.452 0 01.69 1.871 2.237 2.237 0 01-.321 1.211 2.166 2.166 0 01-.925.811 1.646 1.646 0 01.963.767 2.768 2.768 0 01.3 1.336v.778a3.349 3.349 0 00.082.76 1.129 1.129 0 00.284.553v.142h-1.276a1.024 1.024 0 01-.265-.609 6 6 0 01-.058-.861v-.753a1.864 1.864 0 00-.34-1.182 1.113 1.113 0 00-.93-.436h-1.681zm0-.938h1.466a1.407 1.407 0 001.11-.406 1.691 1.691 0 00.357-1.151 1.821 1.821 0 00-.348-1.186 1.287 1.287 0 00-1.057-.421h-1.526v3.164zm11.777.2h.036l1.82-4.32h1.374l-2.615 5.693v3.2h-1.232v-3.279l-2.586-5.615h1.387l1.816 4.32zm9.811 1.07a9.3 9.3 0 01-.813 4.03 5.059 5.059 0 01-1.76 2.264h-.035l-.233-.623a5.1 5.1 0 001.176-2.113 11.1 11.1 0 00.5-3.546v-.121a10.864 10.864 0 00-.517-3.532 5.608 5.608 0 00-1.163-2.138l.233-.624h.035a5.087 5.087 0 011.756 2.283 9.317 9.317 0 01.817 4.021v.1z" fill="#434242"/><path d="M17.907 30.247H9.272l-2.817 7H0L14.21 4.504h6.655l4.211 32.743h-6.455l-.713-7zm-6.551-5.112h6.025l-1.176-11.567h-.138l-4.711 11.567zm117.587-2.257h-11l-1.411 9.257h12.933l-.779 5.112h-19.341l4.991-32.743h19.3l-.78 5.112h-12.89l-1.243 8.151h11l-.779 5.112z" fill="#f35f09"/><path d="M38.766 30.877a2.073 2.073 0 00-.534-1.789 11.018 11.018 0 00-2.819-1.85 13.481 13.481 0 01-5.031-3.1 5.2 5.2 0 01-1.141-4.5 7.834 7.834 0 013.121-5.066 10.228 10.228 0 016.539-2.1c2.695 0 4.742.721 6.127 2.157a5.953 5.953 0 011.471 5.5l-.083.138h-6.164a3.884 3.884 0 00-.258-2.433 1.873 1.873 0 00-1.8-.9 2.807 2.807 0 00-1.864.7 2.689 2.689 0 00-.97 1.681 2.007 2.007 0 00.447 1.75 12.048 12.048 0 002.857 1.8 12.536 12.536 0 015.194 3.093 5.5 5.5 0 011.127 4.69 7.432 7.432 0 01-3.245 5.074 11.409 11.409 0 01-6.8 1.98q-4.2 0-6.283-2.448a6.365 6.365 0 01-1.5-5.526l.067-.138h5.849a3.6 3.6 0 00.472 2.794 2.771 2.771 0 002.234.852 3.145 3.145 0 002.053-.63 2.681 2.681 0 00.932-1.734zM59.412 6.883l-.922 6.048h3.37l-.709 4.651h-3.37l-1.867 12.242a3.765 3.765 0 00.1 2.126 1.126 1.126 0 001.076.645 7.4 7.4 0 001-.054 7.658 7.658 0 00.927-.192l-.238 4.782a14.7 14.7 0 01-2 .445 15.866 15.866 0 01-2.108.13 5.035 5.035 0 01-4.424-1.9c-.89-1.266-1.129-3.27-.709-6.025l1.861-12.2H48.52l.709-4.651h2.879l.922-6.048h6.387zm16.652 11.874l-2.4-.069a3.066 3.066 0 00-1.748.491 3.883 3.883 0 00-1.234 1.4L68.14 37.25h-6.387l3.707-24.316h5.957l-.252 3.262.108.046a8.234 8.234 0 012.049-2.763 3.978 3.978 0 012.594-1.005 5.345 5.345 0 01.9.077 5.676 5.676 0 01.815.192l-1.57 6.018zm1.735 4.835a14.089 14.089 0 013.815-8.006 10.433 10.433 0 017.752-3.116c3.116 0 5.392 1.036 6.809 3.116s1.887 4.743 1.39 8.006l-.46 3.016a13.957 13.957 0 01-3.833 8.021 10.49 10.49 0 01-7.731 3.078q-4.7 0-6.831-3.078t-1.372-8.021l.46-3.016zm5.906 3a9.547 9.547 0 00.118 4.406 2.339 2.339 0 002.5 1.6 3.308 3.308 0 002.931-1.6 11.254 11.254 0 001.469-4.4l.459-3.009a9.6 9.6 0 00-.131-4.375 2.327 2.327 0 00-2.462-1.627 3.315 3.315 0 00-2.961 1.642 11.268 11.268 0 00-1.463 4.36l-.459 3.009zm57.469-13.662l-.24 3.339a10.2 10.2 0 012.914-2.8 6.389 6.389 0 013.407-1 4.758 4.758 0 014.418 2.341q1.382 2.337.621 7.353l-2.3 15.082h-6.41l2.3-15.1a6.18 6.18 0 00-.165-3.546 2.11 2.11 0 00-2.04-1.021 3.294 3.294 0 00-1.643.453 4.779 4.779 0 00-1.4 1.236l-2.74 17.976h-6.387l3.707-24.316h5.957zM163.2 28.074l.011 1.842h.138l.6-1.842 5.118-15.144h6.678L165.29 37.246h-6.255l-3.063-24.316h6.678l.547 15.144zm17.924 9.172h-6.389l3.707-24.316h6.387zm16.01-6.37a2.073 2.073 0 00-.534-1.789 11.017 11.017 0 00-2.819-1.85 13.48 13.48 0 01-5.032-3.1 5.2 5.2 0 01-1.141-4.5 7.832 7.832 0 013.121-5.066 10.227 10.227 0 016.538-2.1q4.042 0 6.127 2.157a5.952 5.952 0 011.472 5.5l-.083.138h-6.164a3.884 3.884 0 00-.258-2.433 1.872 1.872 0 00-1.8-.9 2.807 2.807 0 00-1.864.7 2.689 2.689 0 00-.97 1.681 2.007 2.007 0 00.447 1.75 12.04 12.04 0 002.857 1.8 12.535 12.535 0 015.194 3.093 5.5 5.5 0 011.127 4.69 7.432 7.432 0 01-3.245 5.074 11.409 11.409 0 01-6.8 1.98q-4.2 0-6.282-2.448a6.365 6.365 0 01-1.5-5.526l.067-.138h5.85a3.6 3.6 0 00.472 2.794 2.771 2.771 0 002.234.852 3.145 3.145 0 002.053-.63 2.68 2.68 0 00.933-1.734zm15.1 6.37h-6.387l3.707-24.316h6.387zM218 23.591a14.089 14.089 0 013.815-8.006 10.433 10.433 0 017.752-3.116c3.116 0 5.392 1.036 6.81 3.116s1.887 4.743 1.39 8.006l-.46 3.016a13.958 13.958 0 01-3.833 8.021 10.49 10.49 0 01-7.739 3.075q-4.7 0-6.831-3.078t-1.372-8.021l.46-3.016zm5.907 3a9.544 9.544 0 00.118 4.406 2.339 2.339 0 002.5 1.6 3.308 3.308 0 002.931-1.6 11.256 11.256 0 001.469-4.4l.459-3.009a9.6 9.6 0 00-.131-4.375 2.327 2.327 0 00-2.462-1.627 3.315 3.315 0 00-2.961 1.642 11.264 11.264 0 00-1.463 4.36l-.458 3.009zm24.706-13.662l-.24 3.339a10.2 10.2 0 012.914-2.8 6.39 6.39 0 013.407-1 4.757 4.757 0 014.418 2.341q1.382 2.337.622 7.353l-2.3 15.082h-6.41l2.3-15.1a6.175 6.175 0 00-.165-3.546 2.11 2.11 0 00-2.04-1.021 3.294 3.294 0 00-1.643.453 4.779 4.779 0 00-1.4 1.236l-2.74 17.976h-6.387l3.707-24.316z" fill="#434242"/><path fill="#d9dada" d="M21.742 46.234h217.033v1H21.742z"/><path d="M183.702 0l.564 3.123 3.268.008-2.946 1.954.529 3.112-2.386-1.915L179.79 8.2l1.473-3.137-2.346-1.928 3.294-.024zM214.3 0l.563 3.123 3.268.008-2.945 1.954.528 3.112-2.387-1.915-2.943 1.918 1.472-3.137-2.346-1.928 3.295-.024z" fill="#f35f09" fill-rule="evenodd"/></svg>