<svg xmlns="http://www.w3.org/2000/svg" xmlns:xlink="http://www.w3.org/1999/xlink" width="250.343" height="76.14" viewBox="0 0 250.343 76.14"><defs><linearGradient id="a" x1="0.463" y1="0.914" x2="0.463" y2="-0.169" gradientUnits="objectBoundingBox"><stop offset="0" stop-color="#ffcf95"/><stop offset="0.427" stop-color="#ffc954"/><stop offset="1" stop-color="#ffc200"/></linearGradient><linearGradient id="b" x1="1.217" y1="1.457" x2="-0.633" y2="1.457" gradientUnits="objectBoundingBox"><stop offset="0" stop-color="#ffc200" stop-opacity="0"/><stop offset="0.203" stop-color="#fb0" stop-opacity="0.204"/><stop offset="0.499" stop-color="#ffa700" stop-opacity="0.498"/><stop offset="0.852" stop-color="#f80" stop-opacity="0.851"/><stop offset="1" stop-color="#ff7800"/></linearGradient><linearGradient id="c" x1="0.518" y1="-0.407" x2="0.353" y2="1.223" xlink:href="#b"/><linearGradient id="d" x1="-0.462" y1="-1.03" x2="0.591" y2="-0.306" xlink:href="#b"/><linearGradient id="e" x1="-0.151" y1="-0.116" x2="0.585" y2="-0.571" xlink:href="#b"/><linearGradient id="f" x1="0.61" y1="2.287" x2="0.415" y2="1.017" xlink:href="#b"/><linearGradient id="g" x1="1.34" y1="1.58" x2="-0.083" y2="0.368" xlink:href="#b"/></defs><g transform="translate(-553 -95.017)"><line x2="201.973" transform="translate(576.563 150.658)" fill="none" stroke="#b0cae2" stroke-width="1"/><g transform="translate(553 95.017)"><path d="M-92.815-7.252a2.021,2.021,0,0,0-.529-1.782,11.559,11.559,0,0,0-2.841-1.782,13.284,13.284,0,0,1-4.947-2.992A4.961,4.961,0,0,1-102.32-18.1a7.317,7.317,0,0,1,2.938-4.915,10.037,10.037,0,0,1,6.329-1.955,8.033,8.033,0,0,1,5.908,2.106,5.61,5.61,0,0,1,1.588,5.239l-.043.13h-5.9a3.6,3.6,0,0,0-.313-2.4,1.99,1.99,0,0,0-1.847-.864,2.863,2.863,0,0,0-1.879.7,2.494,2.494,0,0,0-.951,1.674,1.82,1.82,0,0,0,.443,1.685,13.535,13.535,0,0,0,2.884,1.75,12.568,12.568,0,0,1,5.1,2.992A5.221,5.221,0,0,1-86.9-7.489a7.092,7.092,0,0,1-3.068,4.936A11.1,11.1,0,0,1-96.531-.706a7.714,7.714,0,0,1-6.049-2.355,5.983,5.983,0,0,1-1.6-5.271l.043-.13h5.552a3.445,3.445,0,0,0,.529,2.733A2.878,2.878,0,0,0-95.8-4.9a3.11,3.11,0,0,0,2.041-.648A2.6,2.6,0,0,0-92.815-7.252Zm19.593-23.093-.886,5.811h3.176l-.648,4.342h-3.176l-1.771,11.9A3.5,3.5,0,0,0-76.44-6.15a1.176,1.176,0,0,0,1.1.6,4.3,4.3,0,0,0,.724-.054,5.618,5.618,0,0,0,.724-.184l-.194,4.493A11.859,11.859,0,0,1-75.8-.847a10.607,10.607,0,0,1-1.8.14,4.965,4.965,0,0,1-4.245-1.825q-1.372-1.825-.788-5.714l1.793-11.946h-2.83l.648-4.342h2.83l.886-5.811Zm15.813,11.082-2.074-.065a2.911,2.911,0,0,0-1.771.572,4.42,4.42,0,0,0-1.3,1.588l-2.4,16.007h-6.07l3.5-23.374h5.681l-.216,3.046.108.043a7.464,7.464,0,0,1,1.987-2.592,4,4,0,0,1,2.549-.929,3.54,3.54,0,0,1,.756.076q.346.076.691.184Zm.756,6.2a15.785,15.785,0,0,1,3.78-8.684,9.883,9.883,0,0,1,7.582-3.219A7.162,7.162,0,0,1-38.8-21.617q2.128,3.348,1.372,8.555l-.086.5A15.743,15.743,0,0,1-41.326-3.9a9.9,9.9,0,0,1-7.55,3.2,7.2,7.2,0,0,1-6.513-3.327q-2.128-3.327-1.35-8.533Zm5.984.5a13.334,13.334,0,0,0,.022,5.249,2.338,2.338,0,0,0,2.484,1.858,3.367,3.367,0,0,0,2.938-1.955,14.429,14.429,0,0,0,1.62-5.152l.086-.5a13.1,13.1,0,0,0-.032-5.228A2.337,2.337,0,0,0-46-20.192a3.39,3.39,0,0,0-2.981,2,14.507,14.507,0,0,0-1.6,5.131ZM4.2-21.4a9.551,9.551,0,0,1,2.83-2.635,6.493,6.493,0,0,1,3.348-.929,4.652,4.652,0,0,1,4.277,2.344q1.4,2.344.67,7.269L13.188-1.16H7.1L9.235-15.353a7.777,7.777,0,0,0-.076-3.78A1.766,1.766,0,0,0,7.377-20.17a3.721,3.721,0,0,0-1.879.508,5.553,5.553,0,0,0-1.6,1.415L1.328-1.16H-4.764l3.5-23.374H4.417ZM25.976-9.8,26-8.029l.13.022L26.711-9.8l5.055-14.733h6.373L27.985-1.16H22.045L18.869-24.534h6.416ZM43.366-1.16H37.274l3.5-23.374h6.092Zm15.7-6.092a2.021,2.021,0,0,0-.529-1.782A11.559,11.559,0,0,0,55.7-10.816a13.284,13.284,0,0,1-4.947-2.992A4.961,4.961,0,0,1,49.566-18.1,7.317,7.317,0,0,1,52.5-23.011a10.037,10.037,0,0,1,6.329-1.955,8.033,8.033,0,0,1,5.908,2.106,5.61,5.61,0,0,1,1.588,5.239l-.043.13h-5.9a3.6,3.6,0,0,0-.313-2.4,1.99,1.99,0,0,0-1.847-.864,2.863,2.863,0,0,0-1.879.7,2.494,2.494,0,0,0-.95,1.674,1.82,1.82,0,0,0,.443,1.685,13.535,13.535,0,0,0,2.884,1.75,12.568,12.568,0,0,1,5.1,2.992A5.22,5.22,0,0,1,64.99-7.489a7.092,7.092,0,0,1-3.068,4.936A11.1,11.1,0,0,1,55.356-.706a7.714,7.714,0,0,1-6.049-2.355,5.983,5.983,0,0,1-1.6-5.271l.043-.13H53.3a3.445,3.445,0,0,0,.529,2.733A2.878,2.878,0,0,0,56.09-4.9a3.11,3.11,0,0,0,2.041-.648A2.6,2.6,0,0,0,59.071-7.252ZM73.523-1.16H67.431l3.5-23.374h6.092Zm5.4-11.9a15.785,15.785,0,0,1,3.78-8.684,9.883,9.883,0,0,1,7.582-3.219,7.162,7.162,0,0,1,6.492,3.348q2.128,3.348,1.372,8.555l-.086.5A15.743,15.743,0,0,1,94.251-3.9a9.9,9.9,0,0,1-7.55,3.2,7.2,7.2,0,0,1-6.513-3.327q-2.128-3.327-1.35-8.533Zm5.984.5a13.333,13.333,0,0,0,.022,5.249,2.338,2.338,0,0,0,2.484,1.858,3.367,3.367,0,0,0,2.938-1.955,14.428,14.428,0,0,0,1.62-5.152l.086-.5a13.1,13.1,0,0,0-.032-5.228,2.337,2.337,0,0,0-2.452-1.9,3.39,3.39,0,0,0-2.981,2,14.507,14.507,0,0,0-1.6,5.131ZM108.519-21.4a9.551,9.551,0,0,1,2.83-2.635,6.493,6.493,0,0,1,3.348-.929,4.652,4.652,0,0,1,4.277,2.344q1.4,2.344.67,7.269L117.506-1.16h-6.092l2.139-14.193a7.777,7.777,0,0,0-.076-3.78,1.766,1.766,0,0,0-1.782-1.037,3.721,3.721,0,0,0-1.879.508,5.553,5.553,0,0,0-1.6,1.415L105.646-1.16H99.554l3.5-23.374h5.681Z" transform="translate(130.446 44.424)"/><path d="M-114.464-8.055h-7.863l-2.808,6.8h-6.351L-117.855-32.7h6.308l4.212,31.453h-6.373Zm-5.9-4.8H-115l-1.123-9.937-.13-.022ZM-9-15.14h-9.613L-19.975-6H-8.461L-9.174-1.25H-26.78L-22.07-32.7H-4.508l-.713,4.774H-16.691l-1.21,8.036h9.613ZM-5.8-1.25Z" transform="translate(131.486 44.514)" fill="#f25e0a"/><g transform="translate(166.387 0)"><path d="M8.974,11.883l2.211,4.481,4.945.718a.686.686,0,0,1,.38,1.17L12.932,21.74l.845,4.925a.686.686,0,0,1-1,.723L8.359,25.062,3.936,27.388a.686.686,0,0,1-1-.723l.845-4.925L.208,18.252a.686.686,0,0,1,.38-1.17l4.945-.718,2.211-4.48A.686.686,0,0,1,8.974,11.883Z" transform="translate(0 -11.501)" fill="url(#a)"/><path d="M258.827,16.364l-2.211-4.481A.678.678,0,0,0,256,11.5v8.483Z" transform="translate(-247.642 -11.501)" fill="url(#b)"/><path d="M260.573,201.2l3.578-3.488a.677.677,0,0,0,.176-.694L256,199.445Z" transform="translate(-247.641 -190.962)" fill="url(#c)"/><path d="M261.147,278.639,256,271.289v5.079l4.423,2.325A.678.678,0,0,0,261.147,278.639Z" transform="translate(-247.641 -262.806)" fill="url(#d)"/><path d="M95.185,271.289l-4.573,1.756-.845,4.925a.678.678,0,0,0,.271.669Z" transform="translate(-86.826 -262.806)" fill="url(#e)"/><path d="M.968,161.624,9.3,164.049l-2.826-3.62-4.945.719a.678.678,0,0,0-.556.476Z" transform="translate(-0.936 -155.566)" fill="url(#f)"/><path d="M3.791,201.2.214,197.715a.677.677,0,0,1-.176-.694l8.327,2.425Z" transform="translate(-0.006 -190.963)" fill="url(#g)"/></g><g transform="translate(196.202 0)"><path d="M8.974,11.883l2.211,4.481,4.945.718a.686.686,0,0,1,.38,1.17L12.932,21.74l.845,4.925a.686.686,0,0,1-1,.723L8.359,25.062,3.936,27.388a.686.686,0,0,1-1-.723l.845-4.925L.208,18.252a.686.686,0,0,1,.38-1.17l4.945-.718,2.211-4.48A.686.686,0,0,1,8.974,11.883Z" transform="translate(0 -11.501)" fill="url(#a)"/><path d="M258.827,16.364l-2.211-4.481A.678.678,0,0,0,256,11.5v8.483Z" transform="translate(-247.642 -11.501)" fill="url(#b)"/><path d="M260.573,201.2l3.578-3.488a.677.677,0,0,0,.176-.694L256,199.445Z" transform="translate(-247.641 -190.962)" fill="url(#c)"/><path d="M261.147,278.639,256,271.289v5.079l4.423,2.325A.678.678,0,0,0,261.147,278.639Z" transform="translate(-247.641 -262.806)" fill="url(#d)"/><path d="M95.185,271.289l-4.573,1.756-.845,4.925a.678.678,0,0,0,.271.669Z" transform="translate(-86.826 -262.806)" fill="url(#e)"/><path d="M.968,161.624,9.3,164.049l-2.826-3.62-4.945.719a.678.678,0,0,0-.556.476Z" transform="translate(-0.936 -155.566)" fill="url(#f)"/><path d="M3.791,201.2.214,197.715a.677.677,0,0,1-.176-.694l8.327,2.425Z" transform="translate(-0.006 -190.963)" fill="url(#g)"/></g></g><path d="M-99.154-.364h-1.15l-3.178-6.052-.034.011V-.364h-1.144V-8.569h1.144l3.178,6.036.034-.006v-6.03h1.15Zm8.183-2.074h-2.451l-.592,2.074H-95.2l2.463-8.205h1.11l2.44,8.205H-90.38Zm-2.192-.907h1.939l-.947-3.336h-.034ZM-81.183-7.69h-2.175V-.364h-1.15V-7.69h-2.158v-.879h5.483Zm7.05,5.252h-2.451l-.592,2.074h-1.189L-75.9-8.569h1.11l2.44,8.205h-1.189Zm-2.192-.907h1.939l-.947-3.336h-.034Zm8.943,2.113h3.319v.868h-4.463V-8.569h1.144Zm12.319-1.291a2.092,2.092,0,0,1,.355-1.212A5.04,5.04,0,0,1-53.649-4.8a5.4,5.4,0,0,1-.569-.992A2.334,2.334,0,0,1-54.4-6.7,2.006,2.006,0,0,1-53.9-8.171a1.856,1.856,0,0,1,1.386-.516,1.711,1.711,0,0,1,1.285.5,1.7,1.7,0,0,1,.49,1.231,1.839,1.839,0,0,1-.234.95,2.975,2.975,0,0,1-.685.769l-.626.507,1.668,2.2.034-.006a3,3,0,0,0,.282-.744,3.758,3.758,0,0,0,.1-.89h.969A4.694,4.694,0,0,1-49.414-2.8a3.377,3.377,0,0,1-.566,1.107l1.009,1.33h-1.347l-.445-.592a3.17,3.17,0,0,1-.9.53,2.832,2.832,0,0,1-1.012.18,2.4,2.4,0,0,1-1.741-.628A2.192,2.192,0,0,1-55.063-2.522Zm2.423,1.409a1.989,1.989,0,0,0,.71-.132,2.217,2.217,0,0,0,.654-.392L-53.1-4.06l-.118.1a2.376,2.376,0,0,0-.547.758,1.776,1.776,0,0,0-.141.657,1.576,1.576,0,0,0,.332,1.028A1.132,1.132,0,0,0-52.64-1.113Zm-.688-5.6a1.563,1.563,0,0,0,.127.592,3.48,3.48,0,0,0,.38.671l.58-.451a1.226,1.226,0,0,0,.392-.473,1.4,1.4,0,0,0,.1-.547.967.967,0,0,0-.209-.626.7.7,0,0,0-.575-.259.67.67,0,0,0-.589.316A1.367,1.367,0,0,0-53.327-6.715ZM-38.506-3.6V-.364H-39.65V-8.569h2.666a2.425,2.425,0,0,1,1.829.685,2.481,2.481,0,0,1,.662,1.8,2.478,2.478,0,0,1-.662,1.8,2.431,2.431,0,0,1-1.829.682Zm0-.879h1.522a1.187,1.187,0,0,0,1.009-.454,1.836,1.836,0,0,0,.344-1.141,1.893,1.893,0,0,0-.341-1.155,1.177,1.177,0,0,0-1.012-.462h-1.522Zm9.248.58V-.364H-30.4v-8.2h2.418a2.578,2.578,0,0,1,1.829.6,2.252,2.252,0,0,1,.645,1.73,2.075,2.075,0,0,1-.3,1.124,1.987,1.987,0,0,1-.865.747,1.57,1.57,0,0,1,.91.71,2.476,2.476,0,0,1,.279,1.229V-1.7a3.217,3.217,0,0,0,.073.7.987.987,0,0,0,.259.507v.13h-1.178a.976.976,0,0,1-.251-.566,5.109,5.109,0,0,1-.059-.786v-.693A1.7,1.7,0,0,0-26.962-3.5a1.065,1.065,0,0,0-.882-.4Zm0-.873h1.217a1.344,1.344,0,0,0,1.048-.375,1.531,1.531,0,0,0,.338-1.062,1.641,1.641,0,0,0-.33-1.093,1.239,1.239,0,0,0-1-.389h-1.274Zm11.789,2.333h-2.451l-.592,2.074H-21.7l2.463-8.205h1.11l2.44,8.205h-1.189Zm-2.192-.907h1.939l-.947-3.336H-18.7Zm11.541.919a1.348,1.348,0,0,0-.321-.927,2.814,2.814,0,0,0-1.133-.662,4.65,4.65,0,0,1-1.775-.93,1.959,1.959,0,0,1-.62-1.516,2.073,2.073,0,0,1,.685-1.6,2.5,2.5,0,0,1,1.755-.628,2.446,2.446,0,0,1,1.826.7,2.322,2.322,0,0,1,.665,1.753l-.011.034h-1.1a1.725,1.725,0,0,0-.383-1.167A1.266,1.266,0,0,0-9.54-7.814a1.188,1.188,0,0,0-.944.383,1.4,1.4,0,0,0-.335.958,1.189,1.189,0,0,0,.355.885,3.423,3.423,0,0,0,1.195.659,4.2,4.2,0,0,1,1.708.958,2.085,2.085,0,0,1,.586,1.533,2,2,0,0,1-.69,1.6,2.679,2.679,0,0,1-1.812.595A2.916,2.916,0,0,1-11.36-.888a2.156,2.156,0,0,1-.772-1.843l.011-.034h1.1a1.621,1.621,0,0,0,.442,1.245,1.548,1.548,0,0,0,1.1.411,1.354,1.354,0,0,0,1-.358A1.293,1.293,0,0,0-8.12-2.426ZM2.689-.364H1.545V-3.981H-1.668V-.364H-2.812V-8.569h1.144v3.714H1.545V-8.569H2.689Zm9.958,0H11.5L8.318-6.416,8.285-6.4V-.364H7.141V-8.569H8.285l3.178,6.036.034-.006v-6.03h1.15Zm8.183-2.074H18.378L17.786-.364H16.6l2.463-8.205h1.11L22.61-.364H21.421Zm-2.192-.907h1.939l-.947-3.336h-.034Zm13.1-.344a8.66,8.66,0,0,1,.747-3.722,4.628,4.628,0,0,1,1.626-2.1h.034l.209.609a4.578,4.578,0,0,0-1.11,1.939A10.1,10.1,0,0,0,32.77-3.7v.113A10.046,10.046,0,0,0,33.238-.33a4.889,4.889,0,0,0,1.11,1.967l-.209.575h-.034A4.594,4.594,0,0,1,32.477.132,8.627,8.627,0,0,1,31.733-3.6ZM43.664-.364H42.52V-3.981H39.307V-.364H38.163V-8.569h1.144v3.714H42.52V-8.569h1.144Zm9.975-2.97a3.132,3.132,0,0,1-.789,2.274,2.807,2.807,0,0,1-2.113.814,2.73,2.73,0,0,1-2.079-.814,3.173,3.173,0,0,1-.772-2.274V-5.588a3.2,3.2,0,0,1,.772-2.277,2.708,2.708,0,0,1,2.074-.823,2.806,2.806,0,0,1,2.116.82,3.145,3.145,0,0,1,.792,2.28ZM52.5-5.6a2.5,2.5,0,0,0-.459-1.626,1.6,1.6,0,0,0-1.31-.555,1.524,1.524,0,0,0-1.265.555A2.564,2.564,0,0,0,49.023-5.6v2.271a2.586,2.586,0,0,0,.445,1.64,1.528,1.528,0,0,0,1.268.558,1.6,1.6,0,0,0,1.307-.555A2.538,2.538,0,0,0,52.5-3.333ZM59-3.9V-.364H57.859v-8.2h2.418a2.578,2.578,0,0,1,1.829.6,2.252,2.252,0,0,1,.645,1.73,2.075,2.075,0,0,1-.3,1.124,1.987,1.987,0,0,1-.865.747,1.57,1.57,0,0,1,.91.71,2.476,2.476,0,0,1,.279,1.229V-1.7a3.217,3.217,0,0,0,.073.7.988.988,0,0,0,.259.507v.13H61.928a.976.976,0,0,1-.251-.566,5.109,5.109,0,0,1-.059-.786v-.693A1.7,1.7,0,0,0,61.3-3.5a1.064,1.064,0,0,0-.882-.4Zm0-.873H60.22a1.344,1.344,0,0,0,1.048-.375,1.531,1.531,0,0,0,.338-1.062,1.641,1.641,0,0,0-.33-1.093,1.239,1.239,0,0,0-1-.389H59ZM70.792-2.437H68.341L67.749-.364H66.56l2.463-8.205h1.11l2.44,8.205H71.384ZM68.6-3.345h1.939l-.947-3.336h-.034ZM77.538-3.9V-.364H76.394v-8.2h2.418a2.578,2.578,0,0,1,1.829.6,2.252,2.252,0,0,1,.645,1.73,2.075,2.075,0,0,1-.3,1.124,1.987,1.987,0,0,1-.865.747,1.57,1.57,0,0,1,.91.71,2.476,2.476,0,0,1,.279,1.229V-1.7a3.217,3.217,0,0,0,.073.7.988.988,0,0,0,.259.507v.13H80.463a.976.976,0,0,1-.251-.566,5.109,5.109,0,0,1-.059-.786v-.693A1.7,1.7,0,0,0,79.834-3.5a1.064,1.064,0,0,0-.882-.4Zm0-.873h1.217A1.344,1.344,0,0,0,79.8-5.145a1.531,1.531,0,0,0,.338-1.062,1.641,1.641,0,0,0-.33-1.093,1.239,1.239,0,0,0-1-.389H77.538Zm10.256.2h.034l1.713-4h1.285L88.364-3.316V-.364H87.22V-3.4L84.8-8.569h1.274Zm8.988.969A8.508,8.508,0,0,1,96.025.121a4.648,4.648,0,0,1-1.648,2.091h-.034l-.22-.575A4.681,4.681,0,0,0,95.236-.31a10.03,10.03,0,0,0,.476-3.277V-3.7a9.839,9.839,0,0,0-.487-3.266,5.058,5.058,0,0,0-1.1-1.97l.22-.575h.034a4.64,4.64,0,0,1,1.646,2.1,8.555,8.555,0,0,1,.761,3.717Z" transform="translate(682.031 168.945)"/></g></svg>