<svg xmlns="http://www.w3.org/2000/svg" width="329.567" height="73.434"><path d="M107.018 66.299h-1.184l-3.241-6.355-.034.012v6.343h-1.192v-8.545h1.192l3.239 6.337.036-.01v-6.327h1.184zm8.856-2.151h-2.724l-.621 2.151h-1.21l2.63-8.545h1.15l2.606 8.545h-1.21l-.621-2.151zm-2.448-.949h2.177l-1.068-3.736h-.036zm13.486-4.543h-2.2v7.643h-1.192v-7.643h-2.181v-.9h5.568v.9zm8.216 5.492h-2.724l-.621 2.151h-1.21l2.631-8.545h1.15l2.606 8.545h-1.209zm-2.448-.949h2.178l-1.068-3.736h-.036zm9.73 2.2h3.333v.9h-4.525v-8.545h1.192zm9.877-1.348a2.183 2.183 0 01.366-1.252 5.06 5.06 0 011.09-1.1 5.757 5.757 0 01-.593-1.041 2.443 2.443 0 01-.194-.953 2.112 2.112 0 01.525-1.52 1.89 1.89 0 011.425-.545 1.747 1.747 0 011.32.525 1.779 1.779 0 01.5 1.282 1.843 1.843 0 01-.259.986 3.162 3.162 0 01-.733.8l-.611.5 1.721 2.305.034-.006a3.14 3.14 0 00.285-.772 3.884 3.884 0 00.1-.923h.967a4.941 4.941 0 01-.188 1.408 3.483 3.483 0 01-.569 1.144l1.052 1.408h-1.392l-.45-.611a3.5 3.5 0 01-.927.545 2.854 2.854 0 01-1.028.186 2.438 2.438 0 01-1.785-.653 2.307 2.307 0 01-.655-1.714zm2.484 1.468a1.988 1.988 0 00.721-.138 2.327 2.327 0 00.669-.4l-1.879-2.54-.134.11a2.4 2.4 0 00-.525.789 2.024 2.024 0 00-.132.683 1.665 1.665 0 00.34 1.072 1.138 1.138 0 00.936.423zm-.687-5.839a1.624 1.624 0 00.132.623 4.268 4.268 0 00.39.711l.609-.482a1.306 1.306 0 00.4-.5 1.471 1.471 0 00.108-.573 1 1 0 00-.222-.651.734.734 0 00-.6-.275.682.682 0 00-.607.327 1.45 1.45 0 00-.21.819zm12.631 3.243V66.3h-1.192v-8.545h2.806a2.475 2.475 0 011.877.711 2.918 2.918 0 010 3.747 2.48 2.48 0 01-1.877.709h-1.614zm0-.9h1.614a1.182 1.182 0 001.02-.474 1.98 1.98 0 00.347-1.2 2.039 2.039 0 00-.343-1.214 1.179 1.179 0 00-1.024-.481h-1.614v3.365zm9.946.589v3.689h-1.194v-8.532h2.658a2.629 2.629 0 011.879.627 2.357 2.357 0 01.663 1.8 2.15 2.15 0 01-.308 1.163 2.08 2.08 0 01-.889.779 1.581 1.581 0 01.925.737 2.66 2.66 0 01.285 1.284v.747a3.23 3.23 0 00.078.731 1.087 1.087 0 00.272.531v.136h-1.226a.985.985 0 01-.255-.585 5.792 5.792 0 01-.056-.827v-.723a1.792 1.792 0 00-.327-1.136 1.069 1.069 0 00-.893-.419zm0-.9h1.408a1.351 1.351 0 001.066-.391 1.624 1.624 0 00.343-1.106 1.749 1.749 0 00-.335-1.14 1.237 1.237 0 00-1.016-.4h-1.46v3.04zm12.817 2.439h-2.724l-.621 2.151h-1.21l2.63-8.545h1.15l2.606 8.545h-1.21zm-2.448-.949h2.177l-1.068-3.736h-.036zm12.447.945a1.441 1.441 0 00-.341-.992 2.791 2.791 0 00-1.19-.679 4.85 4.85 0 01-1.873-.964 2.027 2.027 0 01-.651-1.574 2.117 2.117 0 01.725-1.655 2.694 2.694 0 011.863-.647 2.537 2.537 0 011.909.747 2.418 2.418 0 01.7 1.8l-.012.034h-1.14a1.863 1.863 0 00-.382-1.216 1.513 1.513 0 00-2.108-.08 1.407 1.407 0 00-.36.993 1.222 1.222 0 00.387.917 3.522 3.522 0 001.28.677 4.145 4.145 0 011.777.993 2.239 2.239 0 01.611 1.626 2.084 2.084 0 01-.721 1.67 2.824 2.824 0 01-1.9.617 3.121 3.121 0 01-2-.677 2.225 2.225 0 01-.825-1.909l.012-.036h1.144a1.685 1.685 0 00.461 1.3 1.722 1.722 0 001.206.421 1.427 1.427 0 001.048-.373 1.34 1.34 0 00.378-1zm11.427 2.155h-1.184v-3.785h-3.275v3.785h-1.192v-8.545h1.192v3.858h3.275v-3.858h1.184zm10.615 0h-1.184l-3.241-6.355-.034.012v6.343h-1.193v-8.545h1.192l3.239 6.337.036-.01v-6.327h1.184zm8.856-2.151h-2.724l-.621 2.151h-1.21l2.631-8.545h1.149l2.607 8.545h-1.21zm-2.448-.949h2.177l-1.068-3.736H229zm11.017-.361a9.117 9.117 0 01.765-3.872 4.82 4.82 0 011.665-2.185h.034l.219.633a4.771 4.771 0 00-1.136 2.017 10.692 10.692 0 00-.479 3.4v.116a10.649 10.649 0 00.479 3.391 5.083 5.083 0 001.136 2.045l-.219.6h-.034a4.825 4.825 0 01-1.667-2.167 9.063 9.063 0 01-.763-3.88v-.094zm12.629 3.461h-1.184v-3.785h-3.275v3.785h-1.192v-8.545h1.192v3.858h3.275v-3.858h1.184zm10.405-3.095a3.346 3.346 0 01-.788 2.368 2.734 2.734 0 01-2.105.847 2.664 2.664 0 01-2.073-.847 3.4 3.4 0 01-.767-2.368v-2.345a3.411 3.411 0 01.772-2.369 2.647 2.647 0 012.069-.855 2.723 2.723 0 012.1.855 3.362 3.362 0 01.79 2.369zm-1.186-2.363a2.743 2.743 0 00-.444-1.692 1.506 1.506 0 00-1.262-.577 1.445 1.445 0 00-1.234.577 2.83 2.83 0 00-.429 1.692v2.366a2.827 2.827 0 00.433 1.706 1.44 1.44 0 001.23.581 1.5 1.5 0 001.264-.577 2.789 2.789 0 00.443-1.71zm7.048 1.769v3.689h-1.192V57.77h2.658a2.628 2.628 0 011.879.627 2.357 2.357 0 01.663 1.8 2.15 2.15 0 01-.308 1.163 2.081 2.081 0 01-.889.779 1.582 1.582 0 01.925.737 2.659 2.659 0 01.285 1.284v.747a3.245 3.245 0 00.078.731 1.089 1.089 0 00.272.531v.136h-1.226a.986.986 0 01-.254-.585 5.757 5.757 0 01-.056-.827v-.723a1.792 1.792 0 00-.327-1.136 1.071 1.071 0 00-.893-.419zm0-.9h1.408a1.351 1.351 0 001.066-.391 1.624 1.624 0 00.343-1.106 1.748 1.748 0 00-.335-1.14 1.237 1.237 0 00-1.016-.4h-1.466v3.04zm12.817 2.439h-2.724l-.621 2.151h-1.21l2.631-8.545h1.149l2.607 8.545h-1.21zm-2.448-.949h2.178l-1.068-3.736h-.036zm9.73-.589v3.689h-1.192v-8.532h2.658a2.628 2.628 0 011.879.627 2.356 2.356 0 01.663 1.8 2.15 2.15 0 01-.308 1.163 2.081 2.081 0 01-.889.779 1.582 1.582 0 01.925.737 2.659 2.659 0 01.285 1.284v.747a3.223 3.223 0 00.078.731 1.085 1.085 0 00.272.531v.136h-1.226a.984.984 0 01-.255-.585 5.774 5.774 0 01-.056-.827v-.723a1.791 1.791 0 00-.327-1.136 1.07 1.07 0 00-.893-.419h-1.615zm0-.9h1.408a1.351 1.351 0 001.066-.391 1.625 1.625 0 00.343-1.106 1.749 1.749 0 00-.334-1.14 1.237 1.237 0 00-1.016-.4h-1.466v3.04zm11.315.2h.034l1.748-4.15h1.32l-2.512 5.47v3.075h-1.184v-3.15l-2.484-5.394h1.332l1.745 4.15zm9.426 1.028a8.932 8.932 0 01-.781 3.872 4.861 4.861 0 01-1.691 2.175h-.034l-.224-.6a4.9 4.9 0 001.13-2.03 10.662 10.662 0 00.485-3.407v-.116a10.44 10.44 0 00-.5-3.393 5.387 5.387 0 00-1.118-2.054l.224-.6h.034a4.886 4.886 0 011.687 2.193 8.952 8.952 0 01.785 3.864v.094z" fill="#434242"/><path d="M96.967 33.864h-8.3l-2.7 6.726h-6.2L93.419 9.131h6.394l4.046 31.459h-6.2l-.685-6.725zm-6.289-4.913h5.789l-1.13-11.113h-.133l-4.526 11.113zm112.974-2.168h-10.568l-1.356 8.894h12.425l-.749 4.911h-18.582l4.8-31.459h18.535l-.749 4.911h-12.382l-1.194 7.831H204.4l-.749 4.911z" fill="#f35f09"/><path d="M117.013 34.47a1.992 1.992 0 00-.513-1.718 10.587 10.587 0 00-2.708-1.777 12.952 12.952 0 01-4.834-2.979 5 5 0 01-1.1-4.321 7.527 7.527 0 013-4.867 9.827 9.827 0 016.282-2.02 7.825 7.825 0 015.887 2.072 5.72 5.72 0 011.414 5.288l-.079.133h-5.92a3.732 3.732 0 00-.248-2.338 1.8 1.8 0 00-1.727-.863 2.7 2.7 0 00-1.791.671 2.584 2.584 0 00-.932 1.615 1.928 1.928 0 00.429 1.681 11.575 11.575 0 002.745 1.733 12.045 12.045 0 014.99 2.972 5.287 5.287 0 011.083 4.506 7.141 7.141 0 01-3.118 4.875 10.961 10.961 0 01-6.537 1.9q-4.038 0-6.036-2.352a6.116 6.116 0 01-1.44-5.31l.065-.133h5.62a3.459 3.459 0 00.454 2.684 2.662 2.662 0 002.147.819 3.021 3.021 0 001.973-.6 2.576 2.576 0 00.9-1.666zm19.836-23.052l-.886 5.811h3.238l-.682 4.469h-3.238l-1.793 11.762a3.618 3.618 0 00.094 2.043 1.082 1.082 0 001.034.619 7.106 7.106 0 00.959-.052 7.357 7.357 0 00.891-.184l-.229 4.594a14.121 14.121 0 01-1.924.428 15.237 15.237 0 01-2.025.125 4.837 4.837 0 01-4.25-1.821c-.855-1.217-1.085-3.142-.682-5.789l1.788-11.725h-2.766l.681-4.469h2.766l.886-5.811h6.136zm16 11.408l-2.306-.066a2.946 2.946 0 00-1.68.472 3.731 3.731 0 00-1.185 1.342l-2.442 16.017H139.1l3.562-23.362h5.723l-.242 3.134.1.044a7.912 7.912 0 011.968-2.655 3.822 3.822 0 012.492-.966 5.134 5.134 0 01.866.074 5.45 5.45 0 01.783.184l-1.508 5.781zm1.667 4.646a13.537 13.537 0 013.666-7.691 10.023 10.023 0 017.448-2.994c2.994 0 5.181 1 6.542 2.994s1.813 4.557 1.335 7.691l-.442 2.9a13.409 13.409 0 01-3.682 7.706 10.078 10.078 0 01-7.428 2.957q-4.514 0-6.563-2.957t-1.318-7.706l.442-2.9zm5.675 2.883a9.173 9.173 0 00.114 4.233 2.247 2.247 0 002.4 1.534 3.178 3.178 0 002.816-1.541 10.811 10.811 0 001.411-4.225l.441-2.891a9.229 9.229 0 00-.126-4.2 2.236 2.236 0 00-2.365-1.563 3.185 3.185 0 00-2.844 1.578 10.824 10.824 0 00-1.405 4.189l-.441 2.891zm55.214-13.126l-.231 3.208a9.8 9.8 0 012.8-2.691 6.138 6.138 0 013.273-.959 4.572 4.572 0 014.245 2.249q1.327 2.245.6 7.064l-2.209 14.491h-6.159l2.211-14.505a5.938 5.938 0 00-.159-3.407 2.027 2.027 0 00-1.96-.981 3.165 3.165 0 00-1.578.435 4.591 4.591 0 00-1.347 1.187l-2.633 17.271h-6.137l3.562-23.362h5.723zm21.162 14.549l.01 1.77h.133l.572-1.77 4.917-14.549h6.416l-10.044 23.362h-6l-2.943-23.362h6.416l.526 14.549zm17.221 8.813h-6.136l3.562-23.362h6.136zm15.382-6.121a1.992 1.992 0 00-.513-1.718 10.584 10.584 0 00-2.708-1.777 12.953 12.953 0 01-4.834-2.979 5 5 0 01-1.1-4.321 7.525 7.525 0 013-4.867 9.826 9.826 0 016.282-2.02 7.826 7.826 0 015.887 2.072 5.718 5.718 0 011.414 5.288l-.079.133h-5.922a3.732 3.732 0 00-.248-2.338 1.8 1.8 0 00-1.727-.862 2.7 2.7 0 00-1.791.671 2.583 2.583 0 00-.932 1.615 1.928 1.928 0 00.43 1.681 11.568 11.568 0 002.745 1.733 12.043 12.043 0 014.99 2.972 5.287 5.287 0 011.083 4.506 7.141 7.141 0 01-3.118 4.875 10.962 10.962 0 01-6.537 1.9q-4.038 0-6.036-2.352a6.115 6.115 0 01-1.44-5.31l.065-.133h5.62a3.459 3.459 0 00.454 2.684 2.662 2.662 0 002.147.819 3.021 3.021 0 001.973-.6 2.575 2.575 0 00.9-1.666zm14.5 6.121h-6.136l3.562-23.362h6.136zm5.54-13.119a13.536 13.536 0 013.666-7.691 10.024 10.024 0 017.448-2.994c2.994 0 5.181 1 6.542 2.994s1.813 4.557 1.335 7.691l-.442 2.9a13.411 13.411 0 01-3.683 7.706 10.078 10.078 0 01-7.428 2.957q-4.514 0-6.563-2.957t-1.318-7.706l.442-2.9zm5.675 2.883a9.171 9.171 0 00.114 4.233 2.247 2.247 0 002.4 1.534 3.178 3.178 0 002.816-1.541 10.814 10.814 0 001.411-4.225l.441-2.891a9.224 9.224 0 00-.126-4.2 2.236 2.236 0 00-2.365-1.563 3.185 3.185 0 00-2.844 1.578 10.822 10.822 0 00-1.405 4.189l-.44 2.891zm23.736-13.126l-.231 3.208a9.8 9.8 0 012.8-2.691 6.139 6.139 0 013.273-.959 4.571 4.571 0 014.245 2.249q1.328 2.245.6 7.064l-2.209 14.491h-6.157l2.211-14.505a5.933 5.933 0 00-.159-3.407 2.027 2.027 0 00-1.96-.981 3.165 3.165 0 00-1.578.435 4.592 4.592 0 00-1.347 1.187l-2.633 17.271h-6.136l3.562-23.362z" fill="#434242"/><path fill="#d9dada" d="M100.656 49.224h208.518v.961H100.656z"/><path d="M256.261 4.804l.543 3 3.139.008-2.83 1.877.509 2.99-2.293-1.84-2.825 1.84 1.414-3.014-2.253-1.852 3.164-.023zM285.655 4.804l.541 3 3.14.008-2.83 1.877.508 2.99-2.293-1.84-2.824 1.84 1.414-3.014-2.254-1.852 3.166-.023z" fill="#f35f09" fill-rule="evenodd"/><g><path d="M4.677 0h64.079a4.677 4.677 0 014.677 4.677v64.079a4.677 4.677 0 01-4.677 4.677H4.677A4.677 4.677 0 010 68.756V4.677A4.677 4.677 0 014.677 0z" fill="#f35f09"/><path d="M14.097 31.757H9.939l-.843 3.371H5.988l4.438-15.766h3.2l4.431 15.766h-3.108l-.857-3.371zm-3.529-2.461h2.9l-1.415-5.569h-.065zM26.289 31.007a2.1 2.1 0 00-.477-1.453 4.8 4.8 0 00-1.678-1.053 11.155 11.155 0 01-3.688-1.944 3.861 3.861 0 01-1.227-3.045 3.96 3.96 0 011.427-3.156 5.444 5.444 0 013.651-1.216 5.04 5.04 0 013.659 1.364 4.429 4.429 0 011.364 3.433l-.022.066h-2.986a2.661 2.661 0 00-.543-1.737 1.851 1.851 0 00-1.526-.665 1.871 1.871 0 00-1.434.551 1.959 1.959 0 00-.514 1.39 1.605 1.605 0 00.573 1.271 8.085 8.085 0 001.992 1.109 8.41 8.41 0 013.374 1.922 4.323 4.323 0 011.131 3.145 3.98 3.98 0 01-1.364 3.2 5.422 5.422 0 01-3.629 1.156 6.083 6.083 0 01-3.9-1.316 4.4 4.4 0 01-1.6-3.773l.022-.063h3a2.953 2.953 0 00.617 2.1 2.49 2.49 0 001.863.639 1.863 1.863 0 001.445-.517 2.021 2.021 0 00.473-1.408zM40.569 21.823h-3.552v13.3h-3.075v-13.3h-3.529v-2.461h10.156zM45.137 28.875v6.253h-3.075V19.385h5.145a5.187 5.187 0 013.655 1.227 4.432 4.432 0 011.327 3.415 3.943 3.943 0 01-.554 2.125 3.871 3.871 0 01-1.611 1.423 3.036 3.036 0 011.748 1.364 4.836 4.836 0 01.536 2.38v1.116a6.8 6.8 0 00.152 1.39 1.892 1.892 0 00.529 1.075v.229h-3.182a1.787 1.787 0 01-.477-1.123 12.466 12.466 0 01-.1-1.589v-1.068a3.013 3.013 0 00-.484-1.826 1.612 1.612 0 00-1.379-.647h-2.232zm0-2.461h2.058a1.778 1.778 0 001.43-.573 2.456 2.456 0 00.484-1.634 2.762 2.762 0 00-.484-1.722 1.679 1.679 0 00-1.419-.639h-2.07zM65.253 29.46a5.958 5.958 0 01-1.5 4.328 5.91 5.91 0 01-8 0 6 6 0 01-1.493-4.328v-4.41a6.052 6.052 0 011.493-4.335 5.239 5.239 0 013.984-1.575 5.3 5.3 0 014.006 1.575 5.981 5.981 0 011.516 4.335v4.41zm-3.064-4.446a4.3 4.3 0 00-.628-2.554 2.123 2.123 0 00-1.829-.861 2.075 2.075 0 00-1.818.857 4.436 4.436 0 00-.606 2.558v4.446a4.4 4.4 0 00.617 2.569 2.357 2.357 0 003.636 0 4.31 4.31 0 00.628-2.569v-4.446zM18.903 48.367h-3.421v2.879h4.022v1.59H13.49V42.652h6v1.59h-4.008v2.535h3.421zM27.666 52.835h-1.979l-3.113-6.512-.043.014v6.5h-1.992V42.652h1.993l3.113 6.505.043-.014v-6.491h1.979zM32.288 50.233l.079.392h.041l.076-.37 1.7-7.6h2.091L33.43 52.838h-2.069l-2.848-10.183h2.091zM39.199 52.835H37.22V42.652h1.979zM45.374 50.173a1.359 1.359 0 00-.308-.938 3.088 3.088 0 00-1.084-.68 7.216 7.216 0 01-2.382-1.256 2.493 2.493 0 01-.792-1.967 2.557 2.557 0 01.921-2.039 3.518 3.518 0 012.358-.785 3.252 3.252 0 012.363.881 2.86 2.86 0 01.881 2.217l-.014.043h-1.929a1.718 1.718 0 00-.351-1.122 1.363 1.363 0 00-1.912-.074 1.265 1.265 0 00-.332.9 1.038 1.038 0 00.37.821 5.239 5.239 0 001.287.716 5.431 5.431 0 012.179 1.241 2.792 2.792 0 01.73 2.031 2.57 2.57 0 01-.881 2.069 3.5 3.5 0 01-2.344.747 3.93 3.93 0 01-2.521-.85 2.841 2.841 0 01-1.031-2.437l.014-.041h1.936a1.907 1.907 0 00.4 1.354 1.61 1.61 0 001.2.413 1.2 1.2 0 00.933-.334 1.306 1.306 0 00.305-.909zM50.687 52.835h-1.979V42.652h1.979zM59.196 49.179a3.849 3.849 0 01-.972 2.8 3.818 3.818 0 01-5.168 0 3.877 3.877 0 01-.964-2.8v-2.85a3.908 3.908 0 01.964-2.8 3.382 3.382 0 012.573-1.017 3.425 3.425 0 012.587 1.017 3.862 3.862 0 01.979 2.8v2.85zm-1.979-2.872a2.778 2.778 0 00-.406-1.65 1.372 1.372 0 00-1.182-.556 1.34 1.34 0 00-1.174.554 2.863 2.863 0 00-.392 1.652v2.872a2.84 2.84 0 00.4 1.659 1.522 1.522 0 002.349 0 2.78 2.78 0 00.406-1.659v-2.872zM67.619 52.835H65.64l-3.112-6.512-.043.014v6.5h-1.994V42.652h1.993l3.112 6.505.043-.014v-6.491h1.979z" fill="none" stroke="#fefefe" stroke-linecap="round" stroke-linejoin="round" stroke-miterlimit="2.613" stroke-width="6"/><g><path d="M14.096 31.758H9.938l-.843 3.371H5.988l4.439-15.766h3.2l4.431 15.766H14.95zm-3.529-2.461h2.9l-1.415-5.57h-.066z" fill="#f35f09"/><path d="M26.289 31.008a2.1 2.1 0 00-.477-1.453 4.789 4.789 0 00-1.675-1.053 11.16 11.16 0 01-3.689-1.944 3.862 3.862 0 01-1.227-3.045 3.96 3.96 0 011.427-3.156 5.443 5.443 0 013.651-1.216 5.039 5.039 0 013.659 1.364 4.429 4.429 0 011.364 3.434l-.022.066h-2.987a2.661 2.661 0 00-.543-1.737 2.11 2.11 0 00-2.96-.114 1.958 1.958 0 00-.514 1.389 1.606 1.606 0 00.573 1.272 8.088 8.088 0 001.992 1.108 8.41 8.41 0 013.374 1.922 4.325 4.325 0 011.131 3.145 3.979 3.979 0 01-1.364 3.2 5.419 5.419 0 01-3.629 1.156 6.081 6.081 0 01-3.9-1.315 4.4 4.4 0 01-1.6-3.773l.022-.063h3a2.951 2.951 0 00.617 2.1 2.489 2.489 0 001.862.64 1.862 1.862 0 001.445-.518 2.02 2.02 0 00.473-1.408zm14.28-9.184h-3.551v13.3h-3.075v-13.3h-3.529v-2.462H40.57zm4.568 7.052v6.253h-3.075V19.385h5.144a5.187 5.187 0 013.655 1.227 4.432 4.432 0 011.327 3.415 3.942 3.942 0 01-.554 2.125 3.874 3.874 0 01-1.611 1.423 3.035 3.035 0 011.748 1.364 4.835 4.835 0 01.536 2.38v1.116a6.761 6.761 0 00.151 1.389 1.893 1.893 0 00.528 1.076v.229h-3.182a1.785 1.785 0 01-.477-1.124 12.476 12.476 0 01-.1-1.589v-1.065a3.015 3.015 0 00-.484-1.826 1.614 1.614 0 00-1.379-.647h-2.227zm0-2.461h2.058a1.779 1.779 0 001.431-.573 2.456 2.456 0 00.484-1.634 2.762 2.762 0 00-.484-1.722 1.679 1.679 0 00-1.419-.639h-2.07v4.568zm20.116 3.049a5.959 5.959 0 01-1.5 4.327 5.911 5.911 0 01-8 0 6 6 0 01-1.493-4.327v-4.413a6.051 6.051 0 011.493-4.335 5.24 5.24 0 013.984-1.575 5.307 5.307 0 014.006 1.575 5.983 5.983 0 011.515 4.335v4.413zm-3.063-4.446a4.3 4.3 0 00-.628-2.554 2.124 2.124 0 00-1.829-.862 2.075 2.075 0 00-1.818.858 4.433 4.433 0 00-.606 2.557v4.446a4.394 4.394 0 00.617 2.568 2.356 2.356 0 003.637 0 4.306 4.306 0 00.628-2.568z" fill="#434242"/><g><path d="M18.904 48.367h-3.42v2.879h4.022v1.59H13.49V42.653h6v1.59h-4.008v2.536h3.42z" fill="#f35f09"/><path d="M27.669 52.836H25.69l-3.113-6.511-.043.014v6.5h-1.995V42.656h1.993l3.113 6.5.043-.014v-6.491h1.981zm4.621-2.6l.079.392h.041l.077-.37 1.7-7.6h2.091l-2.846 10.183h-2.073l-2.848-10.183h2.091l1.685 7.581zm6.911 2.6h-1.979V42.653h1.979zm6.175-2.662a1.359 1.359 0 00-.308-.938 3.094 3.094 0 00-1.084-.68 7.2 7.2 0 01-2.382-1.255 2.494 2.494 0 01-.792-1.967 2.558 2.558 0 01.921-2.039 3.517 3.517 0 012.358-.785 3.254 3.254 0 012.363.881 2.86 2.86 0 01.88 2.217l-.014.043h-1.929a1.719 1.719 0 00-.351-1.122 1.2 1.2 0 00-.986-.43 1.208 1.208 0 00-.926.356 1.264 1.264 0 00-.332.9 1.037 1.037 0 00.37.821 5.231 5.231 0 001.287.716 5.424 5.424 0 012.179 1.241 2.793 2.793 0 01.73 2.031 2.57 2.57 0 01-.881 2.07 3.5 3.5 0 01-2.344.747 3.932 3.932 0 01-2.521-.85 2.841 2.841 0 01-1.031-2.437l.014-.04h1.936a1.905 1.905 0 00.4 1.353 1.609 1.609 0 001.2.413 1.2 1.2 0 00.933-.334 1.305 1.305 0 00.305-.91zm5.314 2.662h-1.981V42.653h1.979zm8.51-3.659a3.849 3.849 0 01-.972 2.8 3.817 3.817 0 01-5.168 0 3.877 3.877 0 01-.965-2.8v-2.85a3.906 3.906 0 01.965-2.8 3.383 3.383 0 012.573-1.017 3.426 3.426 0 012.587 1.017 3.86 3.86 0 01.979 2.8v2.85zm-1.979-2.872a2.781 2.781 0 00-.405-1.649 1.373 1.373 0 00-1.182-.556 1.341 1.341 0 00-1.174.554 2.867 2.867 0 00-.391 1.652v2.872a2.836 2.836 0 00.4 1.659 1.522 1.522 0 002.349 0 2.782 2.782 0 00.405-1.659zm10.4 6.531h-1.979l-3.113-6.511-.043.014v6.5h-1.993V42.656h1.993l3.113 6.5.043-.014v-6.491h1.979z" fill="#434242"/></g></g></g></svg>